<?xml version="1.0" encoding="utf-8"?>
<!-- Generator: Adobe Illustrator 24.1.0, SVG Export Plug-In . SVG Version: 6.00 Build 0)  -->
<svg version="1.1" id="Ebene_1" xmlns="http://www.w3.org/2000/svg" xmlns:xlink="http://www.w3.org/1999/xlink" x="0px" y="0px"
	 viewBox="0 0 850.39 425.2" style="enable-background:new 0 0 850.39 425.2;" xml:space="preserve">
<style type="text/css">
	.st0{display:none;fill:#919099;}
	.st1{display:none;fill-rule:evenodd;clip-rule:evenodd;fill:#FFFFFF;}
	.st2{display:none;fill:#020203;}
	.st3{fill:#FF3527;}
	.st4{fill:#FFFFFF;}
</style>
<g>
	<g>
		<g>
			<g>
				<path class="st0" d="M172.4,336.47l-0.36-0.47l-0.59-0.04l-28.42-2.13c-32.18-37.36-30.4-111.97-27.83-144.61
					c0.97,14.12,3.32,34.8,10.32,50.57c3.15,7.1,6.74,12.66,10.33,17c3.6,4.36,7.17,7.49,10.28,9.71l2.57,1.84l-0.44-3.17
					c-1.32-9.37-2.27-19.28-2.82-29.58c-0.53-10.03-0.69-20.44-0.41-31.1c0.5-19.31,2.34-37.72,5.25-54.5
					c3.02-17.42,7.19-33.07,12.19-46.15c3.19-8.32,6.74-15.64,10.59-21.75c3.76-5.96,7.78-10.76,12.01-14.21l-0.82-2.44l-27.73-0.54
					c-6.47-0.13-12.74,3.54-18.56,10.28c-5.88,6.8-11.34,16.79-16.09,29.21c-4.93,12.88-9.03,28.31-11.99,45.5
					c-2.86,16.52-4.66,34.68-5.15,53.78c-0.49,19.1,0.38,37.31,2.38,53.92c2.08,17.29,5.38,32.87,9.64,45.92
					c4.11,12.59,9.05,22.78,14.57,29.81c5.47,6.97,11.55,10.87,18.01,10.99l27.65,0.54l0.94-2.41c-0.96-0.86-1.89-1.78-2.79-2.76
					C174.21,338.71,173.3,337.63,172.4,336.47z"/>
				<path class="st0" d="M221.35,307.01c-4.33-13.27-7.69-29.07-9.81-46.57c-2.05-16.89-2.94-35.35-2.45-54.66
					c0.5-19.3,2.34-37.71,5.25-54.5c3.03-17.41,7.19-33.06,12.2-46.14c3.18-8.31,6.73-15.62,10.57-21.73
					c3.75-5.96,7.77-10.75,11.98-14.2l-0.82-2.43l-43.25-0.84c-6.46-0.12-12.73,3.54-18.56,10.29c-5.87,6.8-11.33,16.79-16.08,29.21
					c-4.93,12.88-9.03,28.31-11.99,45.5c-2.86,16.52-4.66,34.68-5.15,53.78c-0.49,19.1,0.38,37.31,2.37,53.92
					c2.08,17.29,5.39,32.87,9.64,45.92c4.11,12.59,9.05,22.78,14.57,29.81c5.47,6.96,11.55,10.87,18.01,10.99l43.25,0.84l0.94-2.41
					c-4.04-3.61-7.81-8.56-11.25-14.65C227.27,322.88,224.11,315.45,221.35,307.01z M191.54,334.85
					c-32.17-37.36-30.4-111.97-27.83-144.61c0.97,14.12,3.32,34.8,10.32,50.58c10.42,23.48,25.69,30.17,29.49,31.51
					c4.53,38.81,16.65,58.48,21.53,65.03L191.54,334.85z"/>
				<path class="st0" d="M124.62,336.01l-0.36-0.46l-0.58-0.04l-28.1-2.1C63.4,296.05,65.18,221.44,67.74,188.8
					c0.97,14.12,3.32,34.8,10.33,50.57c3.05,6.88,6.52,12.31,10,16.6c3.49,4.3,6.98,7.43,10.04,9.69l2.6,1.91l-0.45-3.22
					c-1.31-9.36-2.26-19.25-2.81-29.53c-0.53-10.02-0.68-20.4-0.4-31.05c0.5-19.31,2.34-37.72,5.25-54.5
					c3.02-17.41,7.19-33.06,12.19-46.14c3.14-8.22,6.65-15.45,10.44-21.52c3.7-5.92,7.67-10.7,11.83-14.18l-0.83-2.43l-26.85-0.52
					c-6.46-0.13-12.74,3.54-18.56,10.28c-5.87,6.8-11.33,16.79-16.08,29.21c-4.93,12.88-9.03,28.31-12,45.49
					c-2.85,16.52-4.65,34.69-5.15,53.78c-0.49,19.1,0.38,37.31,2.37,53.92c2.08,17.29,5.38,32.87,9.64,45.92
					c4.11,12.59,9.05,22.78,14.57,29.81c5.47,6.96,11.55,10.87,18.01,10.99l27.44,0.54l0.93-2.41c-0.95-0.83-1.9-1.76-2.85-2.77
					C126.45,338.23,125.52,337.15,124.62,336.01z"/>
				<path class="st0" d="M263.74,161.46l-3.09,0c-4.63,0-8.8,5.22-11.81,13.68c-2.86,8.01-4.78,19.07-5.09,31.3
					c-0.31,12.23,1.04,23.35,3.47,31.47c2.58,8.57,6.48,13.95,11.11,14.13l3.09,0.12l-1.98-2.39c-2.19-2.64-4.02-8.32-5.25-15.94
					c-1.24-7.6-1.83-17.03-1.58-27.22c0.26-10.21,1.35-19.6,2.97-27.13c1.62-7.56,3.75-13.17,6.08-15.73L263.74,161.46z"/>
				<path class="st0" d="M298.4,222.21l-1.37-0.07c-0.81-0.04-1.63-0.09-2.45-0.13c-1.47-0.07-2.29-0.11-2.47-0.12l-1.34-0.06
					l-0.1,1.35c-1.98,29.44-7.27,55.41-14.47,73.89c-6.94,17.82-15.52,28.53-24.45,28.35c-1.82-0.04-3.59-0.53-5.33-1.44
					c-1.82-0.96-3.61-2.39-5.33-4.25l-2.06,1.8c2.33,2.99,4.81,5.32,7.41,6.92c2.59,1.59,5.31,2.46,8.13,2.51
					c10.71,0.21,20.66-11.43,28.4-30.81c7.66-19.19,13.26-46.1,15.33-76.56L298.4,222.21z"/>
				<path class="st1" d="M67.92,124.28c1.95-7.3,4.14-14.1,6.52-20.3c4.75-12.42,10.21-22.41,16.08-29.21
					c5.82-6.74,12.1-10.41,18.56-10.28l26.85,0.52l0.83,2.43c-4.16,3.47-8.13,8.26-11.83,14.18c-0.15,0.23-0.29,0.47-0.44,0.7
					c-3.34,0.03-6.13,0.11-8.2,0.24C94.56,83.89,77.24,105.29,67.92,124.28L67.92,124.28z M235.79,85.58
					c-7.3-0.32-30.38-1.3-54.67-2.11c1.74-2.71,3.53-5.14,5.36-7.26c5.83-6.74,12.1-10.41,18.56-10.29l43.25,0.84l0.82,2.43
					c-4.22,3.45-8.24,8.25-11.98,14.2C236.68,84.11,236.23,84.84,235.79,85.58L235.79,85.58z M172.38,83.19
					c-14.44-0.45-28.68-0.79-39.69-0.88c1.71-2.66,3.48-5.04,5.27-7.12c5.82-6.74,12.09-10.41,18.56-10.28l27.73,0.54l0.82,2.44
					c-4.23,3.45-8.26,8.24-12.01,14.21C172.82,82.45,172.6,82.82,172.38,83.19z"/>
				<path class="st2" d="M204.76,271.28c0,0-17.79-4.68-29.49-31.04c-11.7-26.35-10.29-66.81-11.29-66.1
					c0,0-15.82,113.19,26.88,162.03l37.26,2.79C228.13,338.96,210.33,320.53,204.76,271.28z"/>
				<path class="st2" d="M922.34,367.05c0.31-1.12,0.62-2.23,0.93-3.35c-0.56,1.01-1.14,2.01-1.71,3.01
					C921.82,366.82,922.08,366.94,922.34,367.05z"/>
				<path class="st3" d="M101.93,342.53c-12.29-0.24-23.37-15.46-31.33-39.87c-8.31-25.46-12.95-60.6-11.95-99.38
					c1-38.78,7.44-73.7,17.05-98.81c9.22-24.08,21.06-38.85,33.35-38.61l26.85,0.52c-8.61,7.19-16.37,19.76-22.68,36.26
					c-9.89,25.85-16.52,61.59-17.54,101.11c-0.56,21.68,0.63,42.29,3.23,60.8c-5.98-4.41-13.59-12.22-19.6-25.75
					c-11.7-26.35-10.29-66.81-11.29-66.1c0,0-15.82,113.19,26.88,162.03l28.66,2.14c1.86,2.36,3.79,4.43,5.8,6.18L101.93,342.53z
					 M149.36,342.95c-12.29-0.24-23.36-15.46-31.33-39.87c-8.31-25.46-12.95-60.6-11.95-99.38c1-38.78,7.44-73.7,17.04-98.81
					c9.22-24.08,21.06-38.85,33.35-38.61l27.73,0.54c-8.75,7.14-16.62,19.83-23.02,36.54c-9.89,25.85-16.52,61.59-17.54,101.11
					c-0.56,21.72,0.64,42.37,3.25,60.91c-6.07-4.32-13.97-12.2-20.16-26.15c-11.7-26.35-10.29-66.81-11.29-66.1
					c0,0-15.82,113.19,26.88,162.03l28.99,2.17c1.83,2.34,3.72,4.4,5.68,6.16L149.36,342.95z M197.89,343.97
					c-12.29-0.24-23.37-15.46-31.33-39.87c-8.31-25.46-12.95-60.6-11.95-99.38c1-38.78,7.45-73.7,17.05-98.81
					c9.22-24.08,21.06-38.85,33.35-38.61l43.25,0.84c-8.74,7.14-16.59,19.81-22.97,36.5c-9.89,25.85-16.52,61.59-17.54,101.11
					c-1.01,39.52,3.77,75.49,12.32,101.69c5.52,16.92,12.71,29.89,21.06,37.36L197.89,343.97z"/>
			</g>
		</g>
	</g>
</g>
<g>
	<path class="st4" d="M274.57,262.31l-6.23-11.64l-4.79,6.01v5.63h-2.6v-21.1h2.6v12.24l9.45-12.24h2.82l-5.66,7.4l7.29,13.7H274.57
		z"/>
	<path class="st4" d="M280.42,262.31v-15.59h2.1v3.64c0.75-1.55,1.03-2.02,1.6-2.72c0.69-0.82,1.85-1.36,3.04-1.36
		c0.19,0,0.53,0.03,0.88,0.06v2.31c-2.91-0.25-5.13,2.09-5.2,5.41v8.26H280.42z"/>
	<path class="st4" d="M300.38,262.31c-0.16-0.76-0.16-1.04-0.28-2.82c-1.25,2.31-2.79,3.23-5.41,3.23c-3.19,0-5.38-1.93-5.38-4.71
		c0-1.77,1-3.45,2.6-4.27c1.41-0.76,3.5-1.14,6.2-1.14c0.56,0,1.03,0,2,0.06v-0.51c0-2.94-1.1-4.02-4.04-4.02
		c-2.32,0-3.72,0.98-4.13,2.85l-2.22-0.38c0.22-1.17,0.5-1.77,1.16-2.44c1.22-1.26,3.16-1.9,5.73-1.9c2.32,0,3.88,0.6,4.79,1.83
		c0.75,1.04,1.03,2.28,1.03,4.55v6.61c0,1.14,0.09,2.09,0.34,3.04H300.38z M298.07,254.43c-4.01,0-6.2,1.26-6.2,3.64
		c0,1.68,1.28,2.78,3.29,2.78c2.82,0,4.98-2.34,4.98-5.35c0-0.28,0-0.6-0.03-1.01C299.26,254.47,298.44,254.43,298.07,254.43z"/>
	<path class="st4" d="M313.62,248.61h-3.76v13.7h-2.22v-13.7h-2.72v-1.9h2.72c0.06-1.93,0.16-2.56,0.5-3.48
		c0.53-1.52,2.1-2.47,4.1-2.47c0.66,0,1.22,0.06,2.28,0.22v1.96c-0.66-0.19-0.97-0.22-1.44-0.22c-1.6,0-2.6,0.51-2.94,1.49
		c-0.28,0.66-0.28,0.79-0.28,2.5h3.76V248.61z"/>
	<path class="st4" d="M324.47,262.56c-1.06,0.16-1.56,0.19-2.28,0.19c-2.91,0-4.41-1.61-4.41-4.74v-9.39h-2.72v-1.9h2.72l0.09-3.92
		l2.25-0.19v4.11h3.47v1.9h-3.47v9.77c0,1.61,0.85,2.44,2.5,2.44c0.56,0,1-0.03,1.85-0.19V262.56z"/>
	<path class="st4" d="M338.71,262.31h-2.19v-2.66c-1.28,2.21-2.66,3.1-4.88,3.1c-3.63,0-6.2-3.35-6.2-8.1c0-4.93,2.6-8.35,6.32-8.35
		c1.94,0,3.16,0.7,4.54,2.53v-7.62h2.41V262.31z M336.3,252.73c-0.12-1.46-0.31-2.12-0.91-2.88c-0.72-0.98-2.03-1.61-3.25-1.61
		c-2.47,0-4.07,2.4-4.07,6.11c0,4.05,1.47,6.42,3.97,6.42c1.16,0,2.28-0.6,3.13-1.58c0.75-0.92,1-1.64,1.13-3.19V252.73z"/>
	<path class="st4" d="M343.53,262.31v-15.59h2.1v3.64c0.75-1.55,1.03-2.02,1.6-2.72c0.69-0.82,1.85-1.36,3.04-1.36
		c0.19,0,0.53,0.03,0.88,0.06v2.31c-2.91-0.25-5.13,2.09-5.2,5.41v8.26H343.53z"/>
	<path class="st4" d="M365.75,258.13c-1,2.88-3.41,4.59-6.54,4.59c-4.23,0-7.07-3.26-7.07-8.13c0-4.9,2.94-8.29,7.17-8.29
		c2.6,0,4.73,1.33,5.82,3.61c0.63,1.36,0.88,2.66,0.91,4.81h-11.23c0,1.83,0.16,2.66,0.63,3.64c0.69,1.42,2.28,2.37,3.94,2.37
		c1.25,0,2.44-0.51,3.22-1.42c0.34-0.38,0.59-0.82,0.94-1.64L365.75,258.13z M363.4,252.92c-0.03-1.46-0.25-2.18-0.88-3.1
		c-0.78-1.11-1.82-1.65-3.19-1.65c-1.35,0-2.47,0.57-3.32,1.61c-0.69,0.89-0.94,1.65-1.1,3.13H363.4z"/>
	<path class="st4" d="M372.09,243.9h-2.6v-2.69h2.6V243.9z M372,262.31h-2.41v-15.59H372V262.31z"/>
	<path class="st4" d="M387.05,262.31l-4.51-8.7l-3.35,3.89v4.81h-2.41v-21.1h2.41v13.51l7.17-8h2.57l-4.82,5.5l5.45,10.09H387.05z"
		/>
	<path class="st4" d="M401.82,262.31c-0.16-0.76-0.16-1.04-0.28-2.82c-1.25,2.31-2.79,3.23-5.41,3.23c-3.19,0-5.38-1.93-5.38-4.71
		c0-1.77,1-3.45,2.6-4.27c1.41-0.76,3.5-1.14,6.2-1.14c0.56,0,1.03,0,2,0.06v-0.51c0-2.94-1.1-4.02-4.04-4.02
		c-2.32,0-3.72,0.98-4.13,2.85l-2.22-0.38c0.22-1.17,0.5-1.77,1.16-2.44c1.22-1.26,3.16-1.9,5.73-1.9c2.32,0,3.88,0.6,4.79,1.83
		c0.75,1.04,1.03,2.28,1.03,4.55v6.61c0,1.14,0.09,2.09,0.34,3.04H401.82z M399.5,254.43c-4.01,0-6.2,1.26-6.2,3.64
		c0,1.68,1.28,2.78,3.29,2.78c2.82,0,4.98-2.34,4.98-5.35c0-0.28,0-0.6-0.03-1.01C400.69,254.47,399.88,254.43,399.5,254.43z"/>
	<path class="st4" d="M427.01,262.31v-9.68c0-1.71-0.09-2.15-0.5-2.85c-0.5-0.85-1.5-1.39-2.47-1.39s-1.97,0.51-2.75,1.36
		c-0.88,1.01-1.19,2.02-1.19,3.76v8.79h-2.32v-10.25c0-1.23-0.22-1.99-0.72-2.62c-0.59-0.73-1.44-1.14-2.32-1.14
		c-2.13,0-3.79,2.06-3.79,4.68v9.33h-2.28v-15.59h2.07v3.01c1.1-2.25,2.72-3.42,4.76-3.42c2.16,0,3.72,1.36,4.32,3.73
		c1.03-2.44,2.75-3.73,4.88-3.73c1.63,0,3.13,0.85,3.94,2.21c0.56,0.92,0.72,1.87,0.72,4.11v9.68H427.01z"/>
	<path class="st4" d="M433.73,267.59v-20.88h2.16v3.04c1.22-2.4,2.69-3.45,4.85-3.45c3.66,0,6.13,3.32,6.13,8.19
		c0,4.9-2.5,8.22-6.17,8.22c-2,0-3.25-0.76-4.57-2.78v7.65H433.73z M436.14,256.65c0.38,2.37,2.13,4.08,4.1,4.08
		c1.03,0,2.19-0.6,2.85-1.45c0.78-1.01,1.16-2.53,1.16-4.62c0-3.92-1.5-6.23-4.01-6.23c-1.91,0-3.47,1.45-4.1,3.86V256.65z"/>
	<path class="st4" d="M456.82,248.61h-3.75v13.7h-2.22v-13.7h-2.72v-1.9h2.72c0.06-1.93,0.16-2.56,0.5-3.48
		c0.53-1.52,2.1-2.47,4.1-2.47c0.66,0,1.22,0.06,2.29,0.22v1.96c-0.66-0.19-0.97-0.22-1.44-0.22c-1.6,0-2.6,0.51-2.94,1.49
		c-0.28,0.66-0.28,0.79-0.28,2.5h3.75V248.61z"/>
	<path class="st4" d="M465.8,262.31h-2.5l-5.51-15.59h2.66l4.29,12.68l4.26-12.68h2.13L465.8,262.31z"/>
	<path class="st4" d="M485.83,258.13c-1,2.88-3.41,4.59-6.54,4.59c-4.22,0-7.07-3.26-7.07-8.13c0-4.9,2.94-8.29,7.17-8.29
		c2.6,0,4.73,1.33,5.82,3.61c0.63,1.36,0.88,2.66,0.91,4.81h-11.24c0,1.83,0.16,2.66,0.63,3.64c0.69,1.42,2.28,2.37,3.94,2.37
		c1.25,0,2.44-0.51,3.22-1.42c0.34-0.38,0.59-0.82,0.94-1.64L485.83,258.13z M483.48,252.92c-0.03-1.46-0.25-2.18-0.88-3.1
		c-0.78-1.11-1.81-1.65-3.19-1.65c-1.35,0-2.47,0.57-3.32,1.61c-0.69,0.89-0.94,1.65-1.1,3.13H483.48z"/>
	<path class="st4" d="M489.71,262.31v-15.59h2.1v3.64c0.75-1.55,1.03-2.02,1.6-2.72c0.69-0.82,1.85-1.36,3.04-1.36
		c0.19,0,0.53,0.03,0.88,0.06v2.31c-2.91-0.25-5.13,2.09-5.2,5.41v8.26H489.71z"/>
	<path class="st4" d="M499.84,262.31v-21.1h2.41v8.1c1.25-2.15,2.54-3,4.54-3c3.72,0,6.26,3.29,6.26,8.13
		c0,4.87-2.63,8.29-6.35,8.29c-2.1,0-3.6-0.95-4.82-3l-0.88,2.59H499.84z M502.25,256.21c0.16,1.46,0.38,2.12,0.94,2.91
		c0.75,0.98,2.03,1.61,3.25,1.61c2.47,0,4.07-2.34,4.07-5.98c0-1.93-0.47-3.83-1.25-5c-0.59-0.89-1.69-1.46-2.82-1.46
		c-1.13,0-2.13,0.51-2.97,1.46c-0.72,0.85-1,1.55-1.22,2.94V256.21z"/>
	<path class="st4" d="M526.35,262.31c-0.16-0.76-0.16-1.04-0.28-2.82c-1.25,2.31-2.79,3.23-5.41,3.23c-3.19,0-5.38-1.93-5.38-4.71
		c0-1.77,1-3.45,2.6-4.27c1.41-0.76,3.51-1.14,6.2-1.14c0.56,0,1.03,0,2,0.06v-0.51c0-2.94-1.1-4.02-4.04-4.02
		c-2.32,0-3.72,0.98-4.13,2.85l-2.22-0.38c0.22-1.17,0.5-1.77,1.16-2.44c1.22-1.26,3.16-1.9,5.73-1.9c2.32,0,3.88,0.6,4.79,1.83
		c0.75,1.04,1.03,2.28,1.03,4.55v6.61c0,1.14,0.09,2.09,0.34,3.04H526.35z M524.03,254.43c-4.01,0-6.2,1.26-6.2,3.64
		c0,1.68,1.28,2.78,3.29,2.78c2.82,0,4.98-2.34,4.98-5.35c0-0.28,0-0.6-0.03-1.01C525.22,254.47,524.41,254.43,524.03,254.43z"/>
	<path class="st4" d="M543.12,262.31v-10.03c0-2.53-1.13-3.89-3.19-3.89c-2.5,0-4.32,2.28-4.32,5.35v8.57h-2.41v-15.59h2.22v2.88
		c1.6-2.47,2.82-3.29,4.94-3.29c1.94,0,3.57,1.01,4.44,2.72c0.41,0.79,0.56,1.96,0.56,4.27v9.01H543.12z"/>
	<path class="st4" d="M562.17,262.31h-2.19v-2.66c-1.28,2.21-2.66,3.1-4.88,3.1c-3.63,0-6.2-3.35-6.2-8.1c0-4.93,2.6-8.35,6.32-8.35
		c1.94,0,3.16,0.7,4.54,2.53v-7.62h2.41V262.31z M559.76,252.73c-0.12-1.46-0.31-2.12-0.91-2.88c-0.72-0.98-2.03-1.61-3.25-1.61
		c-2.47,0-4.07,2.4-4.07,6.11c0,4.05,1.47,6.42,3.97,6.42c1.16,0,2.28-0.6,3.13-1.58c0.75-0.92,1-1.64,1.13-3.19V252.73z"/>
	<path class="st4" d="M575.06,256.17c0.97,2.91,2.97,4.3,6.17,4.3c3.13,0,5.01-1.46,5.01-3.86c0-1.61-1.16-2.82-3.19-3.32
		l-4.16-1.08c-1.72-0.41-2.63-0.85-3.44-1.58c-1.1-1.04-1.69-2.44-1.69-4.08c0-3.45,2.82-5.76,7.04-5.76c3.72,0,6.29,1.77,7.45,5.19
		l-2.35,0.67c-0.28-1.11-0.63-1.68-1.31-2.28c-1.03-0.92-2.44-1.42-3.88-1.42c-2.53,0-4.41,1.46-4.41,3.45
		c0,1.68,0.97,2.59,3.41,3.19l3.88,0.95c3.57,0.85,5.38,2.81,5.38,5.82c0,3.86-3.04,6.36-7.73,6.36c-2.63,0-4.54-0.66-6.1-2.09
		c-1.1-1.04-1.66-1.96-2.41-3.95L575.06,256.17z"/>
	<path class="st4" d="M603.88,257.22c-0.38,1.9-0.81,2.82-1.81,3.83c-1.1,1.14-2.44,1.68-4.16,1.68c-3.94,0-6.51-3.23-6.51-8.19
		c0-4.93,2.63-8.22,6.63-8.22c3.16,0,5.23,1.9,5.85,5.44l-2.16,0.41c-0.19-1.2-0.41-1.77-0.81-2.37c-0.69-0.95-1.72-1.49-2.91-1.49
		c-2.54,0-4.1,2.37-4.1,6.17c0,3.92,1.5,6.26,4.07,6.26c1.94,0,3.25-1.33,3.75-3.89L603.88,257.22z"/>
	<path class="st4" d="M616.64,262.31v-9.46c0-1.61-0.06-2.18-0.31-2.82c-0.41-1.04-1.5-1.74-2.69-1.74c-1.06,0-2.22,0.57-3,1.49
		c-0.91,1.04-1.28,2.28-1.28,4.11v8.41h-2.41v-21.1h2.41v8.38c1.25-2.37,2.6-3.32,4.73-3.32c1.69,0,3.16,0.73,4.04,2.06
		c0.78,1.14,0.94,1.93,0.94,4.52v9.46H616.64z"/>
	<path class="st4" d="M637.17,262.31h-1.94l-3.44-11.58l-3.16,11.58h-1.97l-4.63-15.59h2.41l3.35,11.61l3.22-11.61h1.75l3.44,11.67
		l3.47-11.67h1.94L637.17,262.31z"/>
	<path class="st4" d="M656.63,258.13c-1,2.88-3.41,4.59-6.54,4.59c-4.22,0-7.07-3.26-7.07-8.13c0-4.9,2.94-8.29,7.17-8.29
		c2.6,0,4.73,1.33,5.82,3.61c0.63,1.36,0.88,2.66,0.91,4.81h-11.24c0,1.83,0.16,2.66,0.63,3.64c0.69,1.42,2.28,2.37,3.94,2.37
		c1.25,0,2.44-0.51,3.22-1.42c0.34-0.38,0.59-0.82,0.94-1.64L656.63,258.13z M654.29,252.92c-0.03-1.46-0.25-2.18-0.88-3.1
		c-0.78-1.11-1.81-1.65-3.19-1.65c-1.35,0-2.47,0.57-3.32,1.61c-0.69,0.89-0.94,1.65-1.1,3.13H654.29z"/>
	<path class="st4" d="M662.98,243.9h-2.6v-2.69h2.6V243.9z M662.89,262.31h-2.41v-15.59h2.41V262.31z"/>
	<path class="st4" d="M677.12,262.31h-11.36v-1.87l8.2-11.83h-7.57v-1.9h10.74v1.33l-8.48,12.4h8.48V262.31z"/>
	<path class="st4" d="M260.96,300.91v-21.1h12.77v2.31h-10.17v6.67h8.45v2.12h-8.45v10H260.96z"/>
	<path class="st4" d="M288.46,296.74c-1,2.88-3.41,4.59-6.54,4.59c-4.23,0-7.07-3.26-7.07-8.13c0-4.9,2.94-8.29,7.17-8.29
		c2.6,0,4.73,1.33,5.82,3.61c0.63,1.36,0.88,2.66,0.91,4.81h-11.23c0,1.83,0.16,2.66,0.63,3.64c0.69,1.42,2.28,2.37,3.94,2.37
		c1.25,0,2.44-0.51,3.22-1.42c0.34-0.38,0.59-0.82,0.94-1.64L288.46,296.74z M286.12,291.52c-0.03-1.46-0.25-2.18-0.88-3.1
		c-0.78-1.11-1.82-1.65-3.19-1.65c-1.35,0-2.47,0.57-3.32,1.61c-0.69,0.89-0.94,1.65-1.1,3.13H286.12z"/>
	<path class="st4" d="M304.36,300.91h-2.19v-2.66c-1.28,2.21-2.66,3.1-4.88,3.1c-3.63,0-6.2-3.35-6.2-8.1c0-4.93,2.6-8.35,6.32-8.35
		c1.94,0,3.16,0.7,4.54,2.53v-7.62h2.41V300.91z M301.95,291.33c-0.12-1.46-0.31-2.12-0.91-2.88c-0.72-0.98-2.03-1.61-3.25-1.61
		c-2.47,0-4.07,2.4-4.07,6.11c0,4.05,1.47,6.42,3.97,6.42c1.16,0,2.28-0.6,3.13-1.58c0.75-0.92,1-1.64,1.13-3.19V291.33z"/>
	<path class="st4" d="M321.57,296.74c-1,2.88-3.41,4.59-6.54,4.59c-4.23,0-7.07-3.26-7.07-8.13c0-4.9,2.94-8.29,7.17-8.29
		c2.6,0,4.73,1.33,5.82,3.61c0.63,1.36,0.88,2.66,0.91,4.81h-11.23c0,1.83,0.16,2.66,0.63,3.64c0.69,1.42,2.28,2.37,3.94,2.37
		c1.25,0,2.44-0.51,3.22-1.42c0.34-0.38,0.59-0.82,0.94-1.64L321.57,296.74z M319.22,291.52c-0.03-1.46-0.25-2.18-0.88-3.1
		c-0.78-1.11-1.82-1.65-3.19-1.65c-1.35,0-2.47,0.57-3.32,1.61c-0.69,0.89-0.94,1.65-1.1,3.13H319.22z"/>
	<path class="st4" d="M325.44,300.91v-15.59h2.1v3.64c0.75-1.55,1.03-2.02,1.6-2.72c0.69-0.82,1.85-1.36,3.04-1.36
		c0.19,0,0.53,0.03,0.88,0.06v2.31c-2.91-0.25-5.13,2.09-5.2,5.41v8.26H325.44z"/>
	<path class="st4" d="M345.41,300.91c-0.16-0.76-0.16-1.04-0.28-2.82c-1.25,2.31-2.79,3.23-5.41,3.23c-3.19,0-5.38-1.93-5.38-4.71
		c0-1.77,1-3.45,2.6-4.27c1.41-0.76,3.5-1.14,6.2-1.14c0.56,0,1.03,0,2,0.06v-0.51c0-2.94-1.1-4.02-4.04-4.02
		c-2.32,0-3.72,0.98-4.13,2.85l-2.22-0.38c0.22-1.17,0.5-1.77,1.16-2.44c1.22-1.26,3.16-1.9,5.73-1.9c2.32,0,3.88,0.6,4.79,1.83
		c0.75,1.04,1.03,2.28,1.03,4.55v6.61c0,1.14,0.09,2.09,0.34,3.04H345.41z M343.09,293.04c-4.01,0-6.2,1.26-6.2,3.64
		c0,1.68,1.28,2.78,3.29,2.78c2.82,0,4.98-2.34,4.98-5.35c0-0.28,0-0.6-0.03-1.01C344.28,293.07,343.47,293.04,343.09,293.04z"/>
	<path class="st4" d="M361.86,300.91H350.5v-1.87l8.2-11.83h-7.57v-1.9h10.73v1.33l-8.48,12.4h8.48V300.91z"/>
	<path class="st4" d="M367.15,282.5h-2.6v-2.69h2.6V282.5z M367.06,300.91h-2.41v-15.59h2.41V300.91z"/>
	<path class="st4" d="M384.49,293.29c0,4.68-2.97,8.03-7.14,8.03c-4.04,0-6.73-3.29-6.73-8.26c0-4.84,2.85-8.16,6.98-8.16
		C381.79,284.91,384.49,288.2,384.49,293.29z M374.32,288.61c-0.69,1.01-1.06,2.53-1.06,4.43c0,4.02,1.56,6.29,4.29,6.29
		c2.69,0,4.32-2.31,4.32-6.17c0-2.12-0.34-3.51-1.1-4.59c-0.78-1.04-2-1.68-3.25-1.68C376.29,286.9,375.04,287.57,374.32,288.61z"/>
	<path class="st4" d="M398,300.91v-10.03c0-2.53-1.13-3.89-3.19-3.89c-2.5,0-4.32,2.28-4.32,5.35v8.57h-2.41v-15.59h2.22v2.88
		c1.6-2.47,2.82-3.29,4.94-3.29c1.94,0,3.57,1.01,4.44,2.72c0.41,0.79,0.56,1.96,0.56,4.27v9.01H398z"/>
	<path class="st4" d="M417.43,296.74c-1,2.88-3.41,4.59-6.54,4.59c-4.23,0-7.07-3.26-7.07-8.13c0-4.9,2.94-8.29,7.17-8.29
		c2.6,0,4.73,1.33,5.82,3.61c0.63,1.36,0.88,2.66,0.91,4.81h-11.23c0,1.83,0.16,2.66,0.63,3.64c0.69,1.42,2.28,2.37,3.94,2.37
		c1.25,0,2.44-0.51,3.22-1.42c0.34-0.38,0.59-0.82,0.94-1.64L417.43,296.74z M415.09,291.52c-0.03-1.46-0.25-2.18-0.88-3.1
		c-0.78-1.11-1.82-1.65-3.19-1.65c-1.35,0-2.47,0.57-3.32,1.61c-0.69,0.89-0.94,1.65-1.1,3.13H415.09z"/>
	<path class="st4" d="M429.38,294.78c0.97,2.91,2.97,4.3,6.17,4.3c3.13,0,5.01-1.46,5.01-3.86c0-1.61-1.16-2.82-3.19-3.32
		l-4.16-1.08c-1.72-0.41-2.63-0.85-3.44-1.58c-1.09-1.04-1.69-2.44-1.69-4.08c0-3.45,2.82-5.76,7.04-5.76
		c3.72,0,6.29,1.77,7.45,5.19l-2.35,0.67c-0.28-1.11-0.63-1.68-1.31-2.28c-1.03-0.92-2.44-1.42-3.88-1.42
		c-2.54,0-4.41,1.46-4.41,3.45c0,1.68,0.97,2.59,3.41,3.19l3.88,0.95c3.57,0.85,5.38,2.81,5.38,5.82c0,3.86-3.04,6.36-7.73,6.36
		c-2.63,0-4.54-0.66-6.1-2.09c-1.1-1.04-1.66-1.96-2.41-3.95L429.38,294.78z"/>
	<path class="st4" d="M452.5,300.91H450l-5.51-15.59h2.66l4.29,12.68l4.26-12.68h2.13L452.5,300.91z"/>
	<path class="st4" d="M462.86,282.5h-2.6v-2.69h2.6V282.5z M462.77,300.91h-2.41v-15.59h2.41V300.91z"/>
	<path class="st4" d="M477,300.91h-11.36v-1.87l8.2-11.83h-7.57v-1.9H477v1.33l-8.48,12.4H477V300.91z"/>
	<path class="st4" d="M490.24,300.91h-11.36v-1.87l8.2-11.83h-7.57v-1.9h10.74v1.33l-8.48,12.4h8.48V300.91z"/>
	<path class="st4" d="M505.16,296.74c-1,2.88-3.41,4.59-6.54,4.59c-4.22,0-7.07-3.26-7.07-8.13c0-4.9,2.94-8.29,7.17-8.29
		c2.6,0,4.73,1.33,5.82,3.61c0.63,1.36,0.88,2.66,0.91,4.81h-11.24c0,1.83,0.16,2.66,0.63,3.64c0.69,1.42,2.28,2.37,3.94,2.37
		c1.25,0,2.44-0.51,3.22-1.42c0.34-0.38,0.59-0.82,0.94-1.64L505.16,296.74z M502.82,291.52c-0.03-1.46-0.25-2.18-0.88-3.1
		c-0.78-1.11-1.81-1.65-3.19-1.65c-1.35,0-2.47,0.57-3.32,1.61c-0.69,0.89-0.94,1.65-1.1,3.13H502.82z"/>
	<path class="st4" d="M509.04,300.91v-15.59h2.1v3.64c0.75-1.55,1.03-2.02,1.6-2.72c0.69-0.82,1.85-1.36,3.04-1.36
		c0.19,0,0.53,0.03,0.88,0.06v2.31c-2.91-0.25-5.13,2.09-5.2,5.41v8.26H509.04z"/>
	<path class="st4" d="M529,300.91c-0.16-0.76-0.16-1.04-0.28-2.82c-1.25,2.31-2.79,3.23-5.41,3.23c-3.19,0-5.38-1.93-5.38-4.71
		c0-1.77,1-3.45,2.6-4.27c1.41-0.76,3.51-1.14,6.2-1.14c0.56,0,1.03,0,2,0.06v-0.51c0-2.94-1.1-4.02-4.04-4.02
		c-2.32,0-3.72,0.98-4.13,2.85l-2.22-0.38c0.22-1.17,0.5-1.77,1.16-2.44c1.22-1.26,3.16-1.9,5.73-1.9c2.32,0,3.88,0.6,4.79,1.83
		c0.75,1.04,1.03,2.28,1.03,4.55v6.61c0,1.14,0.09,2.09,0.34,3.04H529z M526.69,293.04c-4.01,0-6.2,1.26-6.2,3.64
		c0,1.68,1.28,2.78,3.29,2.78c2.82,0,4.98-2.34,4.98-5.35c0-0.28,0-0.6-0.03-1.01C527.88,293.07,527.06,293.04,526.69,293.04z"/>
	<path class="st4" d="M555.7,300.91h-2.19v-2.66c-1.28,2.21-2.66,3.1-4.88,3.1c-3.63,0-6.2-3.35-6.2-8.1c0-4.93,2.6-8.35,6.32-8.35
		c1.94,0,3.16,0.7,4.54,2.53v-7.62h2.41V300.91z M553.29,291.33c-0.12-1.46-0.31-2.12-0.91-2.88c-0.72-0.98-2.03-1.61-3.25-1.61
		c-2.47,0-4.07,2.4-4.07,6.11c0,4.05,1.47,6.42,3.97,6.42c1.16,0,2.28-0.6,3.13-1.58c0.75-0.92,1-1.64,1.13-3.19V291.33z"/>
	<path class="st4" d="M562.98,282.5h-2.6v-2.69h2.6V282.5z M562.89,300.91h-2.41v-15.59h2.41V300.91z"/>
	<path class="st4" d="M575.69,300.91v-21.1h7.39c1.88,0,3.38,0.44,4.48,1.33c1.38,1.08,2.28,3.04,2.28,4.97
		c0,3.64-2.69,6.23-6.48,6.23h-5.07v8.57H575.69z M583.07,290.16c2.47,0,4.1-1.61,4.1-4.05c0-2.4-1.6-4.08-3.91-4.08h-4.98v8.13
		H583.07z"/>
	<path class="st4" d="M605.26,293.29c0,4.68-2.97,8.03-7.14,8.03c-4.04,0-6.73-3.29-6.73-8.26c0-4.84,2.85-8.16,6.98-8.16
		C602.57,284.91,605.26,288.2,605.26,293.29z M595.08,288.61c-0.69,1.01-1.06,2.53-1.06,4.43c0,4.02,1.56,6.29,4.29,6.29
		c2.69,0,4.32-2.31,4.32-6.17c0-2.12-0.34-3.51-1.1-4.59c-0.78-1.04-2-1.68-3.25-1.68C597.06,286.9,595.8,287.57,595.08,288.61z"/>
	<path class="st4" d="M621.71,300.91h-1.94l-3.44-11.58l-3.16,11.58h-1.97l-4.63-15.59h2.41l3.35,11.61l3.22-11.61h1.75l3.44,11.67
		l3.47-11.67h1.94L621.71,300.91z"/>
	<path class="st4" d="M641.17,296.74c-1,2.88-3.41,4.59-6.54,4.59c-4.22,0-7.07-3.26-7.07-8.13c0-4.9,2.94-8.29,7.17-8.29
		c2.6,0,4.73,1.33,5.82,3.61c0.63,1.36,0.88,2.66,0.91,4.81h-11.24c0,1.83,0.16,2.66,0.63,3.64c0.69,1.42,2.28,2.37,3.94,2.37
		c1.25,0,2.44-0.51,3.22-1.42c0.34-0.38,0.59-0.82,0.94-1.64L641.17,296.74z M638.83,291.52c-0.03-1.46-0.25-2.18-0.88-3.1
		c-0.78-1.11-1.81-1.65-3.19-1.65c-1.35,0-2.47,0.57-3.32,1.61c-0.69,0.89-0.94,1.65-1.1,3.13H638.83z"/>
	<path class="st4" d="M645.05,300.91v-15.59h2.1v3.64c0.75-1.55,1.03-2.02,1.6-2.72c0.69-0.82,1.85-1.36,3.04-1.36
		c0.19,0,0.53,0.03,0.88,0.06v2.31c-2.91-0.25-5.13,2.09-5.2,5.41v8.26H645.05z"/>
	<path class="st4" d="M655.19,300.91v-21.1h2.41v21.1H655.19z"/>
	<path class="st4" d="M664.86,282.5h-2.6v-2.69h2.6V282.5z M664.76,300.91h-2.41v-15.59h2.41V300.91z"/>
	<path class="st4" d="M675.93,287.22h-3.75v13.7h-2.22v-13.7h-2.72v-1.9h2.72c0.06-1.93,0.16-2.56,0.5-3.48
		c0.53-1.52,2.1-2.47,4.1-2.47c0.66,0,1.22,0.06,2.29,0.22v1.96c-0.66-0.19-0.97-0.22-1.44-0.22c-1.6,0-2.6,0.51-2.94,1.49
		c-0.28,0.66-0.28,0.79-0.28,2.5h3.75V287.22z"/>
	<path class="st4" d="M686.79,301.17c-1.06,0.16-1.56,0.19-2.28,0.19c-2.91,0-4.41-1.61-4.41-4.74v-9.39h-2.72v-1.9h2.72l0.09-3.92
		l2.25-0.19v4.11h3.47v1.9h-3.47v9.77c0,1.61,0.84,2.44,2.5,2.44c0.56,0,1-0.03,1.85-0.19V301.17z"/>
	<path class="st4" d="M691.8,282.5h-2.6v-2.69h2.6V282.5z M691.7,300.91h-2.41v-15.59h2.41V300.91z"/>
	<path class="st4" d="M706.41,300.91v-10.03c0-2.53-1.13-3.89-3.19-3.89c-2.5,0-4.32,2.28-4.32,5.35v8.57h-2.41v-15.59h2.22v2.88
		c1.6-2.47,2.82-3.29,4.94-3.29c1.94,0,3.57,1.01,4.44,2.72c0.41,0.79,0.56,1.96,0.56,4.27v9.01H706.41z"/>
	<path class="st4" d="M725.71,284.81c-2.07-0.03-2.72,0.38-2.94,1.77c0.97,1.14,1.47,2.4,1.47,3.76c0,3.04-2.47,5.19-5.92,5.19
		c-0.41,0-0.75-0.03-1.06-0.1c-0.5-0.09-0.88-0.16-1-0.16c-0.81,0-1.63,0.73-1.63,1.49c0,0.51,0.25,0.89,0.78,1.14
		s1.16,0.32,4.01,0.41c3.19,0.09,4.22,0.25,5.2,0.92c1.09,0.7,1.69,1.8,1.69,3.1c0,2.94-2.63,4.46-7.76,4.46
		c-4.6,0-7.04-1.42-7.04-4.11c0-1.52,0.72-2.47,2.35-3.1c-1.13-0.82-1.5-1.46-1.5-2.53c0-1.26,0.56-1.99,2.13-2.75
		c-1.44-1.26-2-2.44-2-4.14c0-3.04,2.5-5.31,5.88-5.31c1.16,0,2.16,0.22,3.16,0.73c0.16-0.92,0.44-1.52,0.97-2.02
		c0.53-0.54,1.16-0.7,2.6-0.7c0.19,0,0.31,0,0.62,0.03V284.81z M713.82,302.43c0,0.51,0.22,1.04,0.56,1.33
		c0.85,0.73,2.54,1.17,4.35,1.17c1.25,0,2.6-0.22,3.66-0.57c1.06-0.35,1.63-1.04,1.63-1.93c0-0.7-0.34-1.17-1.06-1.49
		c-0.75-0.35-1.03-0.38-3.72-0.44c-1.57-0.03-3-0.13-3.72-0.22C714.23,300.91,713.82,301.45,713.82,302.43z M714.95,290.25
		c0,2.06,1.38,3.42,3.44,3.42c2,0,3.44-1.39,3.44-3.35c0-2.02-1.44-3.54-3.41-3.54C716.39,286.77,714.95,288.2,714.95,290.25z"/>
	<path class="st4" d="M272.32,339.52l-2.1-6.17h-7.73l-1.85,6.17h-2.19l6.76-21.1h3l6.79,21.1H272.32z M266.47,321.24l-3.22,10.12
		h6.42L266.47,321.24z"/>
	<path class="st4" d="M278.39,335c0.25,0.89,0.5,1.36,1,1.77c0.88,0.73,2.35,1.17,3.79,1.17c2.16,0,3.63-1.01,3.63-2.53
		c0-1.26-0.91-2.06-2.66-2.4l-3.25-0.6c-2.63-0.51-4.16-2.09-4.16-4.3c0-2.75,2.32-4.59,5.82-4.59c3.22,0,5.32,1.36,6.07,3.95
		l-2.19,0.47c-0.72-1.68-1.97-2.44-3.94-2.44c-2,0-3.32,0.92-3.32,2.31c0,1.17,0.78,1.87,2.41,2.18l3.04,0.54
		c3.16,0.57,4.69,2.09,4.69,4.62c0,2.85-2.53,4.78-6.35,4.78c-2.19,0-3.94-0.57-5.26-1.74c-0.81-0.7-1.22-1.36-1.6-2.72L278.39,335z
		"/>
	<path class="st4" d="M293.4,335c0.25,0.89,0.5,1.36,1,1.77c0.88,0.73,2.35,1.17,3.79,1.17c2.16,0,3.63-1.01,3.63-2.53
		c0-1.26-0.91-2.06-2.66-2.4l-3.25-0.6c-2.63-0.51-4.16-2.09-4.16-4.3c0-2.75,2.32-4.59,5.82-4.59c3.22,0,5.32,1.36,6.07,3.95
		l-2.19,0.47c-0.72-1.68-1.97-2.44-3.94-2.44c-2,0-3.32,0.92-3.32,2.31c0,1.17,0.78,1.87,2.41,2.18l3.04,0.54
		c3.16,0.57,4.69,2.09,4.69,4.62c0,2.85-2.54,4.78-6.35,4.78c-2.19,0-3.94-0.57-5.26-1.74c-0.81-0.7-1.22-1.36-1.6-2.72L293.4,335z"
		/>
	<path class="st4" d="M320.38,331.9c0,4.68-2.97,8.03-7.14,8.03c-4.04,0-6.73-3.29-6.73-8.26c0-4.84,2.85-8.16,6.98-8.16
		C317.69,323.51,320.38,326.8,320.38,331.9z M310.21,327.21c-0.69,1.01-1.06,2.53-1.06,4.43c0,4.02,1.56,6.29,4.29,6.29
		c2.69,0,4.32-2.31,4.32-6.17c0-2.12-0.34-3.51-1.1-4.59c-0.78-1.04-2-1.68-3.25-1.68C312.18,325.51,310.93,326.17,310.21,327.21z"
		/>
	<path class="st4" d="M335.24,334.43c-0.38,1.9-0.81,2.82-1.81,3.83c-1.1,1.14-2.44,1.68-4.16,1.68c-3.94,0-6.51-3.23-6.51-8.19
		c0-4.93,2.63-8.22,6.63-8.22c3.16,0,5.23,1.9,5.85,5.44l-2.16,0.41c-0.19-1.2-0.41-1.77-0.81-2.37c-0.69-0.95-1.72-1.49-2.91-1.49
		c-2.53,0-4.1,2.37-4.1,6.17c0,3.92,1.5,6.26,4.07,6.26c1.94,0,3.25-1.33,3.76-3.89L335.24,334.43z"/>
	<path class="st4" d="M341.02,321.11h-2.6v-2.69h2.6V321.11z M340.93,339.52h-2.41v-15.59h2.41V339.52z"/>
	<path class="st4" d="M355.42,339.52c-0.16-0.76-0.16-1.04-0.28-2.82c-1.25,2.31-2.79,3.23-5.41,3.23c-3.19,0-5.38-1.93-5.38-4.71
		c0-1.77,1-3.45,2.6-4.27c1.41-0.76,3.5-1.14,6.2-1.14c0.56,0,1.03,0,2,0.06v-0.51c0-2.94-1.1-4.02-4.04-4.02
		c-2.32,0-3.72,0.98-4.13,2.85l-2.22-0.38c0.22-1.17,0.5-1.77,1.16-2.44c1.22-1.26,3.16-1.9,5.73-1.9c2.32,0,3.88,0.6,4.79,1.83
		c0.75,1.04,1.03,2.28,1.03,4.55v6.61c0,1.14,0.09,2.09,0.34,3.04H355.42z M353.1,331.64c-4.01,0-6.2,1.26-6.2,3.64
		c0,1.68,1.28,2.78,3.29,2.78c2.82,0,4.98-2.34,4.98-5.35c0-0.29,0-0.6-0.03-1.01C354.29,331.67,353.48,331.64,353.1,331.64z"/>
	<path class="st4" d="M368.9,339.77c-1.06,0.16-1.56,0.19-2.28,0.19c-2.91,0-4.41-1.61-4.41-4.74v-9.39h-2.72v-1.9h2.72l0.09-3.92
		l2.25-0.19v4.11h3.47v1.9h-3.47v9.77c0,1.61,0.85,2.44,2.5,2.44c0.56,0,1-0.03,1.85-0.19V339.77z"/>
	<path class="st4" d="M373.91,321.11h-2.6v-2.69h2.6V321.11z M373.81,339.52h-2.41v-15.59h2.41V339.52z"/>
	<path class="st4" d="M391.24,331.9c0,4.68-2.97,8.03-7.14,8.03c-4.04,0-6.73-3.29-6.73-8.26c0-4.84,2.85-8.16,6.98-8.16
		C388.55,323.51,391.24,326.8,391.24,331.9z M381.07,327.21c-0.69,1.01-1.06,2.53-1.06,4.43c0,4.02,1.56,6.29,4.29,6.29
		c2.69,0,4.32-2.31,4.32-6.17c0-2.12-0.34-3.51-1.1-4.59c-0.78-1.04-2-1.68-3.25-1.68C383.04,325.51,381.79,326.17,381.07,327.21z"
		/>
	<path class="st4" d="M404.76,339.52v-10.03c0-2.53-1.13-3.89-3.19-3.89c-2.5,0-4.32,2.28-4.32,5.35v8.57h-2.41v-15.59h2.22v2.88
		c1.6-2.47,2.82-3.29,4.94-3.29c1.94,0,3.57,1.01,4.44,2.72c0.41,0.79,0.56,1.96,0.56,4.27v9.01H404.76z"/>
	<path class="st4" d="M419.87,333.38c0.97,2.91,2.97,4.3,6.16,4.3c3.13,0,5.01-1.46,5.01-3.86c0-1.61-1.16-2.82-3.19-3.32
		l-4.16-1.08c-1.72-0.41-2.63-0.85-3.44-1.58c-1.1-1.04-1.69-2.44-1.69-4.08c0-3.45,2.82-5.76,7.04-5.76c3.72,0,6.29,1.77,7.45,5.19
		l-2.35,0.67c-0.28-1.11-0.62-1.68-1.31-2.28c-1.03-0.92-2.44-1.42-3.88-1.42c-2.54,0-4.41,1.46-4.41,3.45
		c0,1.68,0.97,2.59,3.41,3.19l3.88,0.95c3.57,0.85,5.38,2.81,5.38,5.82c0,3.86-3.04,6.36-7.73,6.36c-2.63,0-4.54-0.66-6.1-2.09
		c-1.1-1.04-1.66-1.96-2.41-3.95L419.87,333.38z"/>
	<path class="st4" d="M447.41,339.52v-2.97c-1.1,2.21-2.75,3.38-4.91,3.38c-3.13,0-5.07-2.28-5.07-6.04v-9.96h2.41v9.96
		c0,1.42,0.25,2.34,0.78,2.97c0.56,0.7,1.41,1.08,2.25,1.08c2.38,0,4.29-2.34,4.29-5.22v-8.79h2.41v15.59H447.41z"/>
	<path class="st4" d="M456.82,321.11h-2.6v-2.69h2.6V321.11z M456.73,339.52h-2.41v-15.59h2.41V339.52z"/>
	<path class="st4" d="M461.7,335c0.25,0.89,0.5,1.36,1,1.77c0.88,0.73,2.35,1.17,3.79,1.17c2.16,0,3.63-1.01,3.63-2.53
		c0-1.26-0.91-2.06-2.66-2.4l-3.25-0.6c-2.63-0.51-4.16-2.09-4.16-4.3c0-2.75,2.32-4.59,5.82-4.59c3.22,0,5.32,1.36,6.07,3.95
		l-2.19,0.47c-0.72-1.68-1.97-2.44-3.94-2.44c-2,0-3.32,0.92-3.32,2.31c0,1.17,0.78,1.87,2.41,2.18l3.04,0.54
		c3.16,0.57,4.69,2.09,4.69,4.62c0,2.85-2.54,4.78-6.35,4.78c-2.19,0-3.94-0.57-5.26-1.74c-0.81-0.7-1.22-1.36-1.6-2.72L461.7,335z"
		/>
	<path class="st4" d="M476.72,335c0.25,0.89,0.5,1.36,1,1.77c0.88,0.73,2.35,1.17,3.79,1.17c2.16,0,3.63-1.01,3.63-2.53
		c0-1.26-0.91-2.06-2.66-2.4l-3.25-0.6c-2.63-0.51-4.16-2.09-4.16-4.3c0-2.75,2.32-4.59,5.82-4.59c3.22,0,5.32,1.36,6.07,3.95
		l-2.19,0.47c-0.72-1.68-1.97-2.44-3.94-2.44c-2,0-3.32,0.92-3.32,2.31c0,1.17,0.78,1.87,2.41,2.18l3.04,0.54
		c3.16,0.57,4.69,2.09,4.69,4.62c0,2.85-2.54,4.78-6.35,4.78c-2.19,0-3.94-0.57-5.26-1.74c-0.81-0.7-1.22-1.36-1.6-2.72L476.72,335z
		"/>
	<path class="st4" d="M503.44,335.34c-1,2.88-3.41,4.59-6.54,4.59c-4.22,0-7.07-3.26-7.07-8.13c0-4.9,2.94-8.29,7.17-8.29
		c2.6,0,4.73,1.33,5.82,3.61c0.63,1.36,0.88,2.66,0.91,4.81h-11.24c0,1.83,0.16,2.66,0.63,3.64c0.69,1.42,2.28,2.37,3.94,2.37
		c1.25,0,2.44-0.51,3.22-1.42c0.34-0.38,0.59-0.82,0.94-1.64L503.44,335.34z M501.09,330.12c-0.03-1.46-0.25-2.18-0.88-3.1
		c-0.78-1.11-1.81-1.65-3.19-1.65c-1.35,0-2.47,0.57-3.32,1.61c-0.69,0.89-0.94,1.65-1.1,3.13H501.09z"/>
	<path class="st4" d="M527.16,339.52h-2.19v-2.66c-1.28,2.21-2.66,3.1-4.88,3.1c-3.63,0-6.2-3.35-6.2-8.1c0-4.93,2.6-8.35,6.32-8.35
		c1.94,0,3.16,0.7,4.54,2.53v-7.62h2.41V339.52z M524.75,329.93c-0.12-1.46-0.31-2.12-0.91-2.88c-0.72-0.98-2.03-1.61-3.25-1.61
		c-2.47,0-4.07,2.4-4.07,6.11c0,4.05,1.47,6.42,3.97,6.42c1.16,0,2.28-0.6,3.13-1.58c0.75-0.92,1-1.64,1.13-3.19V329.93z"/>
	<path class="st4" d="M544.37,335.34c-1,2.88-3.41,4.59-6.54,4.59c-4.22,0-7.07-3.26-7.07-8.13c0-4.9,2.94-8.29,7.17-8.29
		c2.6,0,4.73,1.33,5.82,3.61c0.63,1.36,0.88,2.66,0.91,4.81h-11.24c0,1.83,0.16,2.66,0.63,3.64c0.69,1.42,2.28,2.37,3.94,2.37
		c1.25,0,2.44-0.51,3.22-1.42c0.34-0.38,0.59-0.82,0.94-1.64L544.37,335.34z M542.02,330.12c-0.03-1.46-0.25-2.18-0.88-3.1
		c-0.78-1.11-1.81-1.65-3.19-1.65c-1.35,0-2.47,0.57-3.32,1.61c-0.69,0.89-0.94,1.65-1.1,3.13H542.02z"/>
	<path class="st4" d="M556.25,339.52v-21.1h12.77v2.31h-10.17v6.67h8.45v2.12h-8.45v10H556.25z"/>
	<path class="st4" d="M584.01,331.9c0,4.68-2.97,8.03-7.14,8.03c-4.04,0-6.73-3.29-6.73-8.26c0-4.84,2.85-8.16,6.98-8.16
		C581.32,323.51,584.01,326.8,584.01,331.9z M573.84,327.21c-0.69,1.01-1.06,2.53-1.06,4.43c0,4.02,1.56,6.29,4.29,6.29
		c2.69,0,4.32-2.31,4.32-6.17c0-2.12-0.34-3.51-1.1-4.59c-0.78-1.04-2-1.68-3.25-1.68C575.81,325.51,574.56,326.17,573.84,327.21z"
		/>
	<path class="st4" d="M587.6,339.52v-15.59h2.1v3.64c0.75-1.55,1.03-2.02,1.6-2.72c0.69-0.82,1.85-1.36,3.04-1.36
		c0.19,0,0.53,0.03,0.88,0.06v2.31c-2.91-0.25-5.13,2.09-5.2,5.41v8.26H587.6z"/>
	<path class="st4" d="M608.79,334.43c-0.38,1.9-0.81,2.82-1.81,3.83c-1.1,1.14-2.44,1.68-4.16,1.68c-3.94,0-6.51-3.23-6.51-8.19
		c0-4.93,2.63-8.22,6.63-8.22c3.16,0,5.23,1.9,5.85,5.44l-2.16,0.41c-0.19-1.2-0.41-1.77-0.81-2.37c-0.69-0.95-1.72-1.49-2.91-1.49
		c-2.54,0-4.1,2.37-4.1,6.17c0,3.92,1.5,6.26,4.07,6.26c1.94,0,3.25-1.33,3.75-3.89L608.79,334.43z"/>
	<path class="st4" d="M624.46,335.34c-1,2.88-3.41,4.59-6.54,4.59c-4.22,0-7.07-3.26-7.07-8.13c0-4.9,2.94-8.29,7.17-8.29
		c2.6,0,4.73,1.33,5.82,3.61c0.63,1.36,0.88,2.66,0.91,4.81h-11.24c0,1.83,0.16,2.66,0.63,3.64c0.69,1.42,2.28,2.37,3.94,2.37
		c1.25,0,2.44-0.51,3.22-1.42c0.34-0.38,0.59-0.82,0.94-1.64L624.46,335.34z M622.12,330.12c-0.03-1.46-0.25-2.18-0.88-3.1
		c-0.78-1.11-1.81-1.65-3.19-1.65c-1.35,0-2.47,0.57-3.32,1.61c-0.69,0.89-0.94,1.65-1.1,3.13H622.12z"/>
	<path class="st4" d="M647.71,339.52l-2.1-6.17h-7.73l-1.85,6.17h-2.19l6.76-21.1h3l6.79,21.1H647.71z M641.86,321.24l-3.22,10.12
		h6.42L641.86,321.24z"/>
	<path class="st4" d="M659.91,339.77c-1.06,0.16-1.56,0.19-2.28,0.19c-2.91,0-4.41-1.61-4.41-4.74v-9.39h-2.72v-1.9h2.72l0.09-3.92
		l2.25-0.19v4.11h3.47v1.9h-3.47v9.77c0,1.61,0.84,2.44,2.5,2.44c0.56,0,1-0.03,1.85-0.19V339.77z"/>
	<path class="st4" d="M672.12,339.52v-9.46c0-1.61-0.06-2.18-0.31-2.82c-0.41-1.04-1.5-1.74-2.69-1.74c-1.06,0-2.22,0.57-3,1.49
		c-0.91,1.04-1.28,2.28-1.28,4.11v8.41h-2.41v-21.1h2.41v8.38c1.25-2.37,2.6-3.32,4.73-3.32c1.69,0,3.16,0.73,4.04,2.06
		c0.78,1.14,0.94,1.93,0.94,4.52v9.46H672.12z"/>
	<path class="st4" d="M679.31,339.52v-21.1h2.41v21.1H679.31z"/>
	<path class="st4" d="M698.9,335.34c-1,2.88-3.41,4.59-6.54,4.59c-4.22,0-7.07-3.26-7.07-8.13c0-4.9,2.94-8.29,7.17-8.29
		c2.6,0,4.73,1.33,5.82,3.61c0.63,1.36,0.88,2.66,0.91,4.81h-11.24c0,1.83,0.16,2.66,0.63,3.64c0.69,1.42,2.28,2.37,3.94,2.37
		c1.25,0,2.44-0.51,3.22-1.42c0.34-0.38,0.59-0.82,0.94-1.64L698.9,335.34z M696.55,330.12c-0.03-1.46-0.25-2.18-0.88-3.1
		c-0.78-1.11-1.81-1.65-3.19-1.65c-1.35,0-2.47,0.57-3.32,1.61c-0.69,0.89-0.94,1.65-1.1,3.13H696.55z M690.73,321.49l-0.63-1.23
		l6.04-3.54l0.94,1.87L690.73,321.49z"/>
	<path class="st4" d="M709.54,339.77c-1.06,0.16-1.56,0.19-2.28,0.19c-2.91,0-4.41-1.61-4.41-4.74v-9.39h-2.72v-1.9h2.72l0.09-3.92
		l2.25-0.19v4.11h3.47v1.9h-3.47v9.77c0,1.61,0.84,2.44,2.5,2.44c0.56,0,1-0.03,1.85-0.19V339.77z"/>
	<path class="st4" d="M714.54,321.11h-2.6v-2.69h2.6V321.11z M714.45,339.52h-2.41v-15.59h2.41V339.52z"/>
	<path class="st4" d="M731.19,344.8h-2.41v-8.13c-1.03,2.18-2.54,3.26-4.66,3.26c-3.66,0-6.1-3.23-6.1-8.1
		c0-4.97,2.57-8.35,6.35-8.35c2.13,0,3.25,0.7,4.66,3l0.94-2.78h1.22V344.8z M728.78,330.5c-0.19-1.93-0.47-2.78-1.25-3.67
		c-0.75-0.82-1.85-1.33-2.88-1.33c-2.41,0-4.01,2.5-4.01,6.23s1.53,6.1,3.97,6.1c1.41,0,2.63-0.79,3.38-2.18
		c0.5-0.89,0.66-1.55,0.78-3.07V330.5z"/>
	<path class="st4" d="M745.55,339.52v-2.97c-1.1,2.21-2.75,3.38-4.91,3.38c-3.13,0-5.07-2.28-5.07-6.04v-9.96h2.41v9.96
		c0,1.42,0.25,2.34,0.78,2.97c0.56,0.7,1.41,1.08,2.25,1.08c2.38,0,4.29-2.34,4.29-5.22v-8.79h2.41v15.59H745.55z"/>
	<path class="st4" d="M764.89,335.34c-1,2.88-3.41,4.59-6.54,4.59c-4.22,0-7.07-3.26-7.07-8.13c0-4.9,2.94-8.29,7.17-8.29
		c2.6,0,4.73,1.33,5.82,3.61c0.63,1.36,0.88,2.66,0.91,4.81h-11.24c0,1.83,0.16,2.66,0.63,3.64c0.69,1.42,2.28,2.37,3.94,2.37
		c1.25,0,2.44-0.51,3.22-1.42c0.34-0.38,0.59-0.82,0.94-1.64L764.89,335.34z M762.54,330.12c-0.03-1.46-0.25-2.18-0.88-3.1
		c-0.78-1.11-1.81-1.65-3.19-1.65c-1.35,0-2.47,0.57-3.32,1.61c-0.69,0.89-0.94,1.65-1.1,3.13H762.54z"/>
</g>
<g>
	<path class="st3" d="M213.36,139.22l52.37-70.96h48.13l-58.35,76.68l56.6,73.93h-52.37l-46.38-65.24"/>
	<path class="st3" d="M320.33,218.87V68.26h60.59c28.18,0,47.88,3.18,66.33,18c16.96,13.56,25.93,33.26,25.93,58.04
		c0,22.88-8.73,41.73-25.68,55.92c-18.95,15.67-35.66,18.64-60.59,18.64H320.33z M430.05,143.03c0-27.11-17.21-42.36-49.12-42.36
		h-17.21v85.15h17.46C414.34,185.82,430.05,172.69,430.05,143.03z"/>
	<path class="st3" d="M494.13,218.87V68.26h43.64v70.96l52.37-70.96h48.13l-58.35,76.68l56.6,73.93h-52.37l-46.38-65.24v65.24
		H494.13z"/>
	<path class="st3" d="M678.4,169.3c0,0.64,0,1.06,0,1.69c0,12.29,5.49,18.22,16.21,18.22c10.47,0,16.71-4.66,16.71-12.5
		c0-13.77-12.22-14.83-31.67-22.24c-26.43-10.17-39.9-24.78-39.9-43c0-26.9,24.44-46.18,60.35-46.18
		c31.92,0,53.86,17.37,53.86,44.27c0,0.85,0,1.48,0,2.33h-39.9c0-9.32-5.98-14.62-16.21-14.62c-7.98,0-13.71,4.66-13.71,11.23
		c0,11.23,12.97,13.56,35.66,23.51c24.19,10.59,35.91,23.94,35.91,41.94c0,26.27-25.43,47.87-58.35,47.87
		c-39.4,0-60.34-16.95-60.34-49.14c0-1.06,0-2.33,0-3.39H678.4z"/>
</g>
</svg>
